# xmcd
#
# Track frame offsets: 
#        150
#        22146
#        38318
#        70665
#        87952
#        122278
#        142546
#        158454
#        190049
#        209015
#        229729
#
# Disc length: 3460 seconds
#
# Revision: 0
# Processed by: cddbd v1.5.2PL0 Copyright (c) Steve Scherf et al.
# Submitted via: ExactAudioCopy v1.1
#
DISCID=7c0d820b
DTITLE=The BluesBones - Voodoo Guitar
DYEAR=2012
DGENRE=Blues Rock
TTITLE0=The Witchdoctor
TTITLE1=Cruisin'
TTITLE2=Voodoo Guitar
TTITLE3=Allergic To Work
TTITLE4=She's Got The Devil In Her
TTITLE5=Mr. Highwayman
TTITLE6=Riding Out
TTITLE7=Believe Me
TTITLE8=Depression
TTITLE9=The World Starts Bleeding
TTITLE10=Believe Me (Symphonic)
EXTD=
EXTT0=
EXTT1=
EXTT2=
EXTT3=
EXTT4=
EXTT5=
EXTT6=
EXTT7=
EXTT8=
EXTT9=
EXTT10=
PLAYORDER=
